<?xml version="1.0" encoding="UTF-8"?>
<svg xmlns="http://www.w3.org/2000/svg" xmlns:xlink="http://www.w3.org/1999/xlink" width="12pt" height="12pt" viewBox="0 0 12 12" version="1.1">
<g id="surface1">
<path style=" stroke:#C0C0C0;fill-rule:nonzero;fill:#FF0000;fill-opacity:1;" d="M 10 8.074219 L 10 1.503906 C 10 0.671875 8.203125 0 6 0 C 3.789062 0 2 0.671875 2 1.503906 L 2 8.074219 C 0.773438 8.484375 0 9.082031 0 9.75 C 0 10.992188 2.6875 12 6 12 C 9.3125 12 12 10.992188 12 9.75 C 12 9.082031 11.230469 8.484375 10 8.074219 Z M 6 11.25 C 3.789062 11.25 2 10.578125 2 9.75 C 2 9.195312 2.804688 8.710938 4 8.449219 L 4 1.5 C 4 1.085938 4.894531 0.75 6 0.75 C 7.109375 0.75 8 1.085938 8 1.5 L 8 8.449219 C 9.195312 8.710938 10 9.195312 10 9.75 C 10 10.578125 8.210938 11.25 6 11.25 Z "/>
<path style=" stroke:#C0C0C0;fill-rule:nonzero;fill:#FF0000;fill-opacity:1;" d="M 7 8.6875 L 7 1.5 C 7 1.292969 6.558594 1.125 6 1.125 C 5.445312 1.125 5 1.289062 5 1.5 L 5 8.6875 C 3.835938 8.84375 3 9.261719 3 9.75 C 3 10.371094 4.34375 10.875 6 10.875 C 7.65625 10.875 9 10.371094 9 9.75 C 9 9.261719 8.164062 8.84375 7 8.6875 Z "/>
</g>
</svg>
